<?xml version="1.0" encoding="UTF-8" standalone="no"?>
<svg width="144px" height="144px" viewBox="0 0 144 144" version="1.1" xmlns="http://www.w3.org/2000/svg" xmlns:xlink="http://www.w3.org/1999/xlink" xmlns:sketch="http://www.bohemiancoding.com/sketch/ns">
    <title>144 - Retina iPad App Icon</title>
    <description>Created with Sketch (http://www.bohemiancoding.com/sketch)</description>
    <defs></defs>
    <g id="Page 1" stroke="none" stroke-width="1" fill="none" fill-rule="evenodd">
        <g id="144 - Retina iPad App Icon" fill="#4F4A46">
            <path d="M144,76.3279959 L144,76.9044421 L143.995351,80.9395661 L143.995351,81.5160124 L143.995351,85.5604339 L143.995351,86.1275826 L143.981405,90.1859504 L143.981405,90.7298554 L143.953512,94.830062 L143.944215,95.3088843 L143.879132,99.5160124 L143.735021,104.271694 L143.707128,104.889979 L143.493285,108.701963 L143.460744,109.16219 L143.121384,112.941632 L143.051653,113.527376 L142.963326,114.271178 L142.568182,117.004649 L142.368285,118.143595 L142.033574,119.8125 L141.796488,120.849174 L141.294421,122.759814 L140.769112,124.438017 L140.02531,126.427686 L139.620868,127.371384 L139.081612,128.505682 L137.826446,130.732438 L136.971074,131.987603 L135.864669,133.391529 L134.456095,134.897727 L133.568182,135.715909 L132.485021,136.599174 L130.927686,137.696281 L129.830579,138.370351 L127.961777,139.35124 L126.367252,140.053202 L125.205062,140.499483 L124.675103,140.690083 L123.029442,141.215393 L121.100207,141.736054 L120.574897,141.86157 L119.742769,142.047521 L117.264979,142.526343 L115.94938,142.730888 L114.1875,142.972624 L113.206612,143.088843 L111.323864,143.284091 L109.064566,143.470041 L106.698347,143.618802 L104.583161,143.721074 L102.072831,143.81405 L100.101756,143.865186 L99.3951446,143.883781 L97.447314,143.916322 L95.5552686,143.944215 L94.6998967,143.953512 L92.8171488,143.967459 L90.9622934,143.981405 L90.0418388,143.981405 L88.1916322,143.990702 L86.3507231,143.995351 L85.4070248,143.995351 L83.5661157,143.995351 L81.7298554,143.995351 L80.7768595,143.995351 L78.9405992,143.995351 L77.1043388,144 L76.151343,144 L74.3150826,143.995351 L72.4788223,144 L71.5211777,144 L69.6849174,143.995351 L67.848657,144 L66.8956612,144 L65.0594008,143.995351 L63.2231405,143.995351 L62.2701446,143.995351 L60.4338843,143.995351 L58.5929752,143.995351 L57.6492769,143.995351 L55.8083678,143.990702 L53.9581612,143.981405 L53.0377066,143.981405 L51.1828512,143.967459 L49.3001033,143.953512 L48.4447314,143.944215 L46.5573347,143.916322 L44.6048554,143.883781 L43.8982438,143.865186 L41.9271694,143.81405 L39.8352273,143.739669 L37.3016529,143.618802 L35.0330579,143.47469 L32.6761364,143.284091 L30.7933884,143.088843 L29.8125,142.972624 L28.0506198,142.730888 L26.7350207,142.526343 L24.2618802,142.047521 L23.4251033,141.86157 L22.8997934,141.736054 L20.9705579,141.215393 L19.3248967,140.690083 L18.794938,140.499483 L17.6327479,140.053202 L16.0382231,139.35124 L14.1694215,138.370351 L13.072314,137.696281 L11.5149793,136.599174 L10.4318182,135.715909 L9.54390496,134.897727 L8.13533058,133.391529 L7.02892562,131.987603 L6.17355372,130.732438 L4.91838843,128.505682 L4.5464876,127.743285 L3.97469008,126.427686 L3.23088843,124.438017 L2.70557851,122.759814 L2.2035124,120.849174 L1.96642562,119.8125 L1.63171488,118.143595 L1.43181818,117.004649 L1.03667355,114.271178 L0.948347107,113.527376 L0.878615702,112.941632 L0.539256198,109.16219 L0.506714876,108.701963 L0.292871901,104.889979 L0.264979339,104.322831 L0.125516529,99.8507231 L0.055785124,95.3088843 L0.0464876033,94.830062 L0.0185950413,90.7298554 L0.0185950413,90.1859504 L0.00464876033,86.1275826 L0.00464876033,85.5604339 L0.00464876033,81.5160124 L0.00464876033,80.9395661 L0,76.9044421 L0,76.3279959 L0,72.2882231 L0,71.7117769 L0,67.6720041 L0,67.0955579 L0.00464876033,63.0604339 L0.00464876033,62.4839876 L0.00464876033,58.4395661 L0.00464876033,57.8724174 L0.0185950413,53.8140496 L0.0185950413,53.2701446 L0.0464876033,49.169938 L0.055785124,48.6911157 L0.120867769,44.4839876 L0.264979339,39.7283058 L0.292871901,39.1100207 L0.506714876,35.2980372 L0.539256198,34.8378099 L0.878615702,31.0583678 L0.948347107,30.472624 L1.03667355,29.7288223 L1.43181818,26.9953512 L1.63171488,25.856405 L1.96642562,24.1875 L2.2035124,23.1508264 L2.70557851,21.240186 L3.23088843,19.5619835 L3.97469008,17.572314 L4.37913223,16.6286157 L4.91838843,15.4943182 L6.17355372,13.267562 L7.02892562,12.0123967 L8.13533058,10.6084711 L9.54390496,9.10227273 L10.4318182,8.28409091 L11.5149793,7.40082645 L13.072314,6.30371901 L14.1694215,5.62964876 L16.0382231,4.64876033 L17.6327479,3.94679752 L18.794938,3.50051653 L19.3248967,3.30991736 L20.9705579,2.78460744 L22.8997934,2.26394628 L23.4251033,2.13842975 L24.2618802,1.95247934 L26.7350207,1.47365702 L28.0506198,1.26911157 L29.8125,1.02737603 L30.7933884,0.911157025 L32.6761364,0.715909091 L34.9354339,0.529958678 L37.3016529,0.381198347 L39.4168388,0.27892562 L41.9271694,0.185950413 L43.8982438,0.13481405 L44.6048554,0.116219008 L46.5573347,0.083677686 L48.4447314,0.055785124 L49.3001033,0.0464876033 L51.1828512,0.0325413223 L53.0377066,0.0185950413 L53.9581612,0.0185950413 L55.8083678,0.00929752066 L57.6492769,0.00464876033 L58.5929752,0.00464876033 L60.4338843,0.00464876033 L62.2701446,0.00464876033 L63.2231405,0.00464876033 L65.0594008,0.00464876033 L66.8956612,0 L67.848657,0 L69.6849174,0.00464876033 L71.5211777,0 L72.4788223,0 L74.3150826,0.00464876033 L76.151343,0 L77.1043388,0 L78.9405992,0.00464876033 L80.7768595,0.00464876033 L81.7298554,0.00464876033 L83.5661157,0.00464876033 L85.4070248,0.00464876033 L86.3507231,0.00464876033 L88.1916322,0.00929752066 L90.0418388,0.0185950413 L90.9622934,0.0185950413 L92.8171488,0.0325413223 L94.6998967,0.0464876033 L95.5552686,0.055785124 L97.447314,0.083677686 L99.3951446,0.116219008 L100.101756,0.13481405 L102.072831,0.185950413 L104.164773,0.260330579 L106.698347,0.381198347 L108.966942,0.525309917 L111.323864,0.715909091 L113.206612,0.911157025 L114.1875,1.02737603 L115.94938,1.26911157 L117.264979,1.47365702 L119.742769,1.95247934 L120.574897,2.13842975 L121.100207,2.26394628 L123.029442,2.78460744 L124.675103,3.30991736 L125.205062,3.50051653 L126.367252,3.94679752 L127.961777,4.64876033 L129.830579,5.62964876 L130.927686,6.30371901 L132.485021,7.40082645 L133.568182,8.28409091 L134.456095,9.10227273 L135.864669,10.6084711 L136.971074,12.0123967 L137.826446,13.267562 L139.081612,15.4943182 L139.453512,16.2567149 L140.02531,17.572314 L140.769112,19.5619835 L141.294421,21.240186 L141.796488,23.1508264 L142.033574,24.1875 L142.368285,25.856405 L142.568182,26.9953512 L142.963326,29.7288223 L143.051653,30.472624 L143.121384,31.0583678 L143.460744,34.8378099 L143.493285,35.2980372 L143.707128,39.1100207 L143.735021,39.6771694 L143.874483,44.1492769 L143.944215,48.6911157 L143.953512,49.169938 L143.981405,53.2701446 L143.981405,53.8140496 L143.995351,57.8724174 L143.995351,58.4395661 L143.995351,62.4839876 L143.995351,63.0604339 L144,67.0955579 L144,67.6720041 L144,71.7117769 L144,76.3279959 Z M144,76.3279959" id="Shape copy"></path>
        </g>
    </g>
</svg>