<?xml version="1.0" encoding="UTF-8" standalone="no"?>
<svg width="800px" height="400px" viewBox="0 0 800 400" version="1.1" xmlns="http://www.w3.org/2000/svg" xmlns:xlink="http://www.w3.org/1999/xlink" xmlns:sketch="http://www.bohemiancoding.com/sketch/ns">
    <title>iOS7-Icons</title>
    <description>Created with Sketch (http://www.bohemiancoding.com/sketch)</description>
    <defs></defs>
    <g id="Page 2" stroke="none" stroke-width="1" fill="none" fill-rule="evenodd">
        <g id="iOS7-Icons">
            <path d="M0,0 L0,400 L800,400 L800,0 L0,0 Z M0,0" id="Rectangle 1" fill="#5C98C8"></path>
            <path d="M233.5,181.53012 L233.5,174.228916 L234.938756,174.228916 L234.938756,181.53012 Z M233.5,225.843373 L233.5,188.686747 L234.938756,188.686747 L234.938756,225.843373 Z M241.197343,200.036145 C241.197343,196.373476 241.712892,192.903631 242.744005,189.626506 C243.775119,186.349381 245.285797,183.48194 247.276086,181.024096 C249.266374,178.566253 251.736213,176.614465 254.685677,175.168675 C257.635141,173.722884 261.028173,173 264.864874,173 C268.701575,173 272.094606,173.722884 275.04407,175.168675 C277.993534,176.614465 280.463373,178.566253 282.453662,181.024096 C284.44395,183.48194 285.954629,186.349381 286.985742,189.626506 C288.016855,192.903631 288.532404,196.373476 288.532404,200.036145 C288.532404,203.698813 288.016855,207.168658 286.985742,210.445783 C285.954629,213.722908 284.44395,216.590349 282.453662,219.048193 C280.463373,221.506036 277.993534,223.445776 275.04407,224.86747 C272.094606,226.289164 268.701575,227 264.864874,227 C261.028173,227 257.635141,226.289164 254.685677,224.86747 C251.736213,223.445776 249.266374,221.506036 247.276086,219.048193 C245.285797,216.590349 243.775119,213.722908 242.744005,210.445783 C241.712892,207.168658 241.197343,203.698813 241.197343,200.036145 Z M242.636099,200.036145 C242.684057,203.747007 243.223585,207.168659 244.254699,210.301205 C245.285812,213.433751 246.748532,216.132519 248.642903,218.39759 C250.537275,220.662662 252.85125,222.433729 255.5849,223.710843 C258.318549,224.987958 261.411843,225.626506 264.864874,225.626506 C268.317904,225.626506 271.411198,224.987958 274.144848,223.710843 C276.878497,222.433729 279.192473,220.662662 281.086844,218.39759 C282.981215,216.132519 284.443935,213.433751 285.475049,210.301205 C286.506162,207.168659 287.04569,203.747007 287.093649,200.036145 C287.04569,196.325283 286.506162,192.90363 285.475049,189.771084 C284.443935,186.638539 282.981215,183.93977 281.086844,181.674699 C279.192473,179.409627 276.878497,177.638561 274.144848,176.361446 C271.411198,175.084331 268.317904,174.445783 264.864874,174.445783 C261.411843,174.445783 258.318549,175.084331 255.5849,176.361446 C252.85125,177.638561 250.537275,179.409627 248.642903,181.674699 C246.748532,183.93977 245.285812,186.638539 244.254699,189.771084 C243.223585,192.90363 242.684057,196.325283 242.636099,200.036145 Z M328.961439,188.686747 C328.865521,186.036131 328.373951,183.807238 327.486714,182 C326.599477,180.192762 325.424505,178.722897 323.961763,177.590361 C322.499021,176.457826 320.760542,175.650605 318.746273,175.168675 C316.732005,174.686745 314.573894,174.445783 312.271873,174.445783 C310.497399,174.445783 308.651014,174.626504 306.732664,174.987952 C304.814313,175.349399 303.075834,175.987947 301.517174,176.903614 C299.958515,177.819282 298.675637,179.036137 297.668503,180.554217 C296.661369,182.072297 296.157809,183.98794 296.157809,186.301205 C296.157809,188.614469 296.673358,190.469873 297.704472,191.86747 C298.735585,193.265067 300.07841,194.397586 301.732988,195.26506 C303.387565,196.132534 305.269918,196.807227 307.380104,197.289157 C309.490289,197.771087 311.648401,198.277106 313.854504,198.807229 C316.252442,199.433738 318.51846,200.036142 320.652625,200.614458 C322.78679,201.192774 324.645164,201.963851 326.227803,202.927711 C327.810442,203.891571 329.069341,205.168667 330.004537,206.759036 C330.939732,208.349406 331.407323,210.493962 331.407323,213.192771 C331.407323,215.650615 330.879785,217.746979 329.824692,219.481928 C328.769599,221.216876 327.378816,222.650597 325.652301,223.783133 C323.925785,224.915668 321.983485,225.734937 319.82534,226.240964 C317.667196,226.74699 315.485105,227 313.279002,227 C310.353517,227 307.655878,226.662654 305.186001,225.987952 C302.716125,225.31325 300.581992,224.240971 298.783539,222.771084 C296.985085,221.301197 295.594302,219.40965 294.611147,217.096386 C293.627992,214.783121 293.160402,211.987968 293.20836,208.710843 L294.647116,208.710843 C294.647116,211.795196 295.102717,214.409628 296.013934,216.554217 C296.92515,218.698806 298.208028,220.445776 299.862605,221.795181 C301.517183,223.144585 303.483462,224.120479 305.761504,224.722892 C308.039545,225.325304 310.545353,225.626506 313.279002,225.626506 C315.29327,225.626506 317.295518,225.397593 319.285807,224.939759 C321.276095,224.481925 323.062533,223.746993 324.645172,222.73494 C326.227811,221.722887 327.510689,220.421695 328.493843,218.831325 C329.476998,217.240956 329.968568,215.33736 329.968568,213.120482 C329.968568,210.518059 329.405061,208.457839 328.27803,206.939759 C327.150999,205.421679 325.712258,204.216872 323.961763,203.325301 C322.211268,202.43373 320.268967,201.759038 318.134802,201.301205 C316.000637,200.843371 313.950431,200.373496 311.984122,199.891566 C309.921895,199.409636 307.859699,198.903617 305.797472,198.373494 C303.735246,197.843371 301.876872,197.108438 300.222294,196.168675 C298.567717,195.228911 297.236881,193.975911 296.229747,192.409639 C295.222613,190.843366 294.719054,188.807241 294.719054,186.301205 C294.719054,183.746975 295.246592,181.614466 296.301685,179.903614 C297.356778,178.192763 298.723582,176.83133 300.402139,175.819277 C302.080695,174.807224 303.963049,174.08434 306.049255,173.650602 C308.135461,173.216865 310.209646,173 312.271873,173 C314.813687,173 317.151642,173.277106 319.285807,173.831325 C321.419972,174.385545 323.290335,175.277102 324.896954,176.506024 C326.503573,177.734946 327.78645,179.349388 328.745625,181.349398 C329.704801,183.349408 330.256318,185.795166 330.400194,188.686747 Z M359.10337,178.13253 L359.10337,176.686747 L390.324368,176.686747 L390.324368,178.638554 C387.015214,181.963872 383.993857,185.385525 381.260207,188.903614 C378.526558,192.421704 376.200593,196.096366 374.282242,199.927711 C372.363892,203.759055 370.877193,207.807208 369.8221,212.072289 C368.767007,216.337371 368.239469,220.927686 368.239469,225.843373 L366.800713,225.843373 C366.752754,221.024072 367.244324,216.445805 368.275437,212.108434 C369.306551,207.771063 370.79325,203.638574 372.73558,199.710843 C374.67791,195.783113 377.003875,192.036162 379.713545,188.46988 C382.423215,184.903597 385.432582,181.457848 388.741737,178.13253 Z M418.595917,174.228916 L420.034673,174.228916 L420.034673,225.843373 L418.595917,225.843373 Z M457.658134,213.192771 C457.466298,215.265071 456.962739,217.132522 456.14744,218.795181 C455.332141,220.45784 454.265075,221.867464 452.946209,223.024096 C451.627343,224.180729 450.092685,225.072286 448.342191,225.698795 C446.591696,226.325304 444.661384,226.638554 442.551199,226.638554 C439.913467,226.638554 437.575512,226.144583 435.537265,225.156627 C433.499018,224.16867 431.784518,222.831334 430.393714,221.144578 C429.002909,219.457823 427.947833,217.493987 427.228451,215.253012 C426.50907,213.012037 426.149384,210.614471 426.149384,208.060241 C426.149384,205.361432 426.49708,202.795193 427.192482,200.361446 C427.887884,197.927699 428.942961,195.783142 430.357745,193.927711 C431.772528,192.07228 433.570955,190.590367 435.753078,189.481928 C437.935202,188.373488 440.488968,187.819277 443.414452,187.819277 C445.140968,187.819277 446.79552,188.084335 448.378159,188.614458 C449.960799,189.144581 451.375561,189.915658 452.622489,190.927711 C453.869416,191.939764 454.912504,193.204812 455.751782,194.722892 C456.591061,196.240971 457.130589,197.987942 457.370382,199.963855 L455.931627,199.963855 C455.643874,198.132521 455.116336,196.554223 454.348995,195.228916 C453.581655,193.903608 452.646473,192.795185 451.543422,191.903614 C450.44037,191.012044 449.193461,190.3494 447.802657,189.915663 C446.411853,189.481926 444.949133,189.26506 443.414452,189.26506 C440.488968,189.26506 438.007139,189.83132 435.968892,190.963855 C433.930644,192.096391 432.300071,193.566256 431.077122,195.373494 C429.854174,197.180732 428.96695,199.204808 428.415424,201.445783 C427.863899,203.686758 427.58814,205.891555 427.58814,208.060241 C427.58814,210.325313 427.911857,212.493966 428.5593,214.566265 C429.206743,216.638565 430.153915,218.469872 431.400843,220.060241 C432.64777,221.65061 434.206407,222.915658 436.076798,223.855422 C437.94719,224.795185 440.105302,225.26506 442.551199,225.26506 C444.373632,225.26506 446.076142,224.987955 447.658782,224.433735 C449.241421,223.879515 450.644193,223.072294 451.867142,222.012048 C453.09009,220.951802 454.08522,219.686754 454.85256,218.216867 C455.6199,216.746981 456.075502,215.072299 456.219378,213.192771 Z M463.341218,207.26506 C463.341218,209.626518 463.664935,211.891555 464.312378,214.060241 C464.959822,216.228927 465.930972,218.14457 467.225859,219.807229 C468.520745,221.469888 470.11535,222.795176 472.009721,223.783133 C473.904092,224.771089 476.098173,225.26506 478.592029,225.26506 C481.037925,225.26506 483.208027,224.771089 485.102398,223.783133 C486.996769,222.795176 488.591374,221.469888 489.886261,219.807229 C491.181147,218.14457 492.152297,216.228927 492.799741,214.060241 C493.447184,211.891555 493.770901,209.626518 493.770901,207.26506 C493.770901,204.951796 493.447184,202.710854 492.799741,200.542169 C492.152297,198.373483 491.181147,196.45784 489.886261,194.795181 C488.591374,193.132522 486.996769,191.795186 485.102398,190.783133 C483.208027,189.771079 481.037925,189.26506 478.592029,189.26506 C476.098173,189.26506 473.904092,189.771079 472.009721,190.783133 C470.11535,191.795186 468.520745,193.132522 467.225859,194.795181 C465.930972,196.45784 464.959822,198.373483 464.312378,200.542169 C463.664935,202.710854 463.341218,204.951796 463.341218,207.26506 Z M461.902463,207.26506 C461.902463,204.710831 462.262148,202.265072 462.981529,199.927711 C463.700911,197.59035 464.767977,195.530129 466.182761,193.746988 C467.597544,191.963847 469.336023,190.530126 471.39825,189.445783 C473.460477,188.36144 475.858379,187.819277 478.592029,187.819277 C481.277719,187.819277 483.651642,188.36144 485.713869,189.445783 C487.776096,190.530126 489.514575,191.963847 490.929358,193.746988 C492.344142,195.530129 493.411208,197.59035 494.13059,199.927711 C494.849971,202.265072 495.209657,204.710831 495.209657,207.26506 C495.209657,209.81929 494.849971,212.265049 494.13059,214.60241 C493.411208,216.939771 492.344142,218.999991 490.929358,220.783133 C489.514575,222.566274 487.776096,223.987947 485.713869,225.048193 C483.651642,226.108439 481.25374,226.638554 478.520091,226.638554 C475.8344,226.638554 473.460477,226.108439 471.39825,225.048193 C469.336023,223.987947 467.597544,222.566274 466.182761,220.783133 C464.767977,218.999991 463.700911,216.939771 462.981529,214.60241 C462.262148,212.265049 461.902463,209.81929 461.902463,207.26506 Z M501.180493,188.686747 L502.619248,188.686747 L502.619248,197.86747 L502.763124,197.86747 C503.098835,196.42168 503.638363,195.096392 504.381724,193.891566 C505.125085,192.686741 506.060267,191.626511 507.187297,190.710843 C508.314328,189.795176 509.621185,189.08434 511.107907,188.578313 C512.594628,188.072287 514.249181,187.819277 516.071614,187.819277 C517.989964,187.819277 519.752422,188.108431 521.359041,188.686747 C522.965659,189.265063 524.356443,190.120476 525.531432,191.253012 C526.706422,192.385548 527.617625,193.783124 528.265068,195.445783 C528.912511,197.108442 529.236228,199.024086 529.236228,201.192771 L529.236228,225.843373 L527.797472,225.843373 L527.797472,201.409639 C527.797472,199.240953 527.485745,197.397598 526.862281,195.879518 C526.238817,194.361438 525.387562,193.108439 524.30849,192.120482 C523.229418,191.132525 521.982509,190.409641 520.567725,189.951807 C519.152942,189.493974 517.654253,189.26506 516.071614,189.26506 C513.865511,189.26506 511.92321,189.686743 510.244653,190.53012 C508.566097,191.373498 507.163324,192.506017 506.036293,193.927711 C504.909262,195.349405 504.058007,196.999991 503.482502,198.879518 C502.906996,200.759046 502.619248,202.734929 502.619248,204.807229 L502.619248,225.843373 L501.180493,225.843373 Z M561.248542,199.674699 C561.248542,197.795171 560.960794,196.204826 560.385288,194.903614 C559.809783,193.602403 558.994497,192.530125 557.939404,191.686747 C556.884311,190.843369 555.625412,190.228918 554.16267,189.843373 C552.699928,189.457829 551.081344,189.26506 549.30687,189.26506 C546.717097,189.26506 544.67888,189.614454 543.192158,190.313253 C541.705437,191.012052 540.602402,191.807224 539.88302,192.698795 C539.163639,193.590366 538.708037,194.469875 538.516202,195.337349 C538.324367,196.204824 538.228451,196.807227 538.228451,197.144578 C538.228451,198.975913 538.600126,200.385537 539.343487,201.373494 C540.086848,202.361451 541.081977,203.120479 542.328905,203.650602 C543.623791,204.180726 545.026564,204.638552 546.537265,205.024096 C548.047966,205.40964 549.810424,205.867467 551.824692,206.39759 C553.263455,206.783134 554.690207,207.180721 556.10499,207.590361 C557.519774,208.000002 558.790662,208.566261 559.917693,209.289157 C561.044724,210.012052 561.955927,210.927705 562.651329,212.036145 C563.346731,213.144584 563.694426,214.590353 563.694426,216.373494 C563.694426,218.253021 563.298773,219.843367 562.507453,221.144578 C561.716133,222.44579 560.685036,223.50602 559.414128,224.325301 C558.143221,225.144582 556.70448,225.734938 555.097861,226.096386 C553.491243,226.457833 551.896638,226.638554 550.313999,226.638554 C545.374246,226.638554 541.645508,225.554228 539.127673,223.385542 C536.609838,221.216857 535.35094,217.795204 535.35094,213.120482 L536.789695,213.120482 C536.789695,217.313274 537.952678,220.385532 540.278678,222.337349 C542.604678,224.289166 545.949751,225.26506 550.313999,225.26506 C551.656844,225.26506 553.035638,225.108435 554.450421,224.795181 C555.865205,224.481926 557.148082,223.975907 558.299093,223.277108 C559.450103,222.57831 560.397274,221.674704 561.140635,220.566265 C561.883996,219.457826 562.255671,218.108442 562.255671,216.518072 C562.255671,214.87951 561.883996,213.554222 561.140635,212.542169 C560.397274,211.530115 559.438113,210.698798 558.263124,210.048193 C557.088134,209.397587 555.733319,208.87952 554.198639,208.493976 C552.663959,208.108432 551.105322,207.722893 549.522683,207.337349 C547.748209,206.903612 546.189572,206.493978 544.846727,206.108434 C543.503882,205.72289 542.304931,205.289159 541.249838,204.807229 C539.715158,204.132527 538.588144,203.192777 537.868762,201.987952 C537.149381,200.783127 536.789695,199.168685 536.789695,197.144578 C536.789695,196.132525 537.005507,195.072295 537.437135,193.963855 C537.868764,192.855416 538.588135,191.843378 539.595269,190.927711 C540.602403,190.012044 541.89727,189.265063 543.479909,188.686747 C545.062548,188.108431 547.004849,187.819277 549.30687,187.819277 C553.431323,187.819277 556.69247,188.759027 559.090408,190.638554 C561.488346,192.518082 562.687297,195.5301 562.687297,199.674699 Z M561.248542,199.674699" id="iOS 7 Icons" fill="#FFFFFF"></path>
        </g>
    </g>
</svg>